<svg width="11" height="9" viewBox="0 0 11 9" fill="none" xmlns="http://www.w3.org/2000/svg">
<path d="M4.02009 1.27239C4.56889 -0.0734107 6.47459 -0.0734105 7.02339 1.27239L7.07749 1.40505C7.29367 1.9352 7.80924 2.28174 8.38177 2.28174H8.93601C10.224 2.28174 10.6818 3.98634 9.56712 4.63165C9.02279 4.94676 8.7943 5.61511 9.03179 6.19751L9.05648 6.25804C9.53692 7.43621 8.253 8.55464 7.15184 7.91718L6.34928 7.45258C5.83738 7.15624 5.2061 7.15624 4.69419 7.45258L3.89164 7.91718C2.79048 8.55464 1.50656 7.43621 1.987 6.25804L2.01168 6.19751C2.24918 5.61511 2.02069 4.94676 1.47635 4.63165C0.361635 3.98634 0.819439 2.28174 2.10747 2.28174H2.66171C3.23424 2.28174 3.74981 1.9352 3.96599 1.40505L4.02009 1.27239Z" fill="#F26822"/>
</svg>
