<svg width="300" height="39" viewBox="0 0 300 39" fill="none" xmlns="http://www.w3.org/2000/svg">
<path d="M22.4602 3.99832C22.4602 0.786555 19.3463 0 16.8949 0V0.458824C18.3525 0.458824 19.4788 0.917647 19.4788 2.09748C19.4788 2.75294 19.015 3.73613 17.4912 3.73613C16.3648 3.73613 13.9134 3.08067 12.1246 2.42521C10.0044 1.63866 8.08304 0.983193 6.42668 0.983193C3.18021 0.983193 0.861307 3.4084 0.861307 6.16134C0.861307 8.58655 2.65018 9.37311 3.31272 9.70084L3.44523 9.37311C3.11396 9.04538 2.65018 8.71765 2.65018 7.73445C2.65018 7.07899 3.31272 5.96471 4.90283 5.96471C6.36042 5.96471 8.34806 6.62017 10.932 7.40672C13.1846 8.06219 15.636 8.52101 16.9611 8.71765V13.6992L14.5097 15.7966V15.9277L16.9611 18.0252V24.9731C15.636 25.7597 14.1784 25.9563 12.9196 25.9563C10.4682 25.9563 8.34806 25.3008 6.55919 23.4L13.2509 20.1882V9.04538L5.2341 12.5849C5.89664 10.4874 7.68551 9.04538 9.47438 8.06219L9.27562 7.60336C4.37279 8.91429 0 13.437 0 18.8773C0 25.3008 5.36661 30.1513 11.3958 30.1513C17.8887 30.1513 22.129 24.9731 22.129 19.6639H21.864C20.8701 21.7613 19.4125 23.6622 17.6237 24.6454V18.0252L20.2076 15.9277V15.7966L17.6237 13.6992V8.71765C20.0751 8.71765 22.4602 7.07899 22.4602 3.99832ZM8.2818 21.7613L6.29417 22.7445C5.16784 21.3025 4.5053 19.3361 4.5053 16.6487C4.5053 15.5345 4.5053 14.2235 4.83657 13.2403L8.2818 11.7983V21.7613ZM25.5742 25.4975L23.4541 27.1361L23.7853 27.4639L24.7792 26.6773L28.3569 29.8891L33.2597 26.6773L33.1272 26.3496L31.8021 27.1361L30.1458 25.4975V14.4857L31.4708 13.5025L34.2535 15.7311V25.563C34.2535 31.6588 32.9284 32.642 30.212 33.6252V34.084C34.7836 34.2151 39.0239 32.7731 39.0239 24.9076V14.3546L40.4814 13.2403L40.1502 12.9126L38.8251 13.8958L34.7173 10.4874L30.1458 13.8958V0.655462H29.8145L24.1166 4.52269V4.85042C24.7792 5.17815 25.773 5.50588 25.773 7.27563L25.5742 25.4975ZM55.3887 23.7277L51.3472 26.8084L47.3057 23.5966V21.6303L54.9912 16.4521V16.321L51.0159 10.4874L42.5353 15.0101V25.6286L40.879 26.9395L41.2103 27.2672L42.6678 26.1529L48.2332 30.1513L55.5875 24.3176L55.3887 23.7277ZM47.2394 20.9748V13.0437L47.5707 12.9126L51.1484 18.5496L47.2394 20.9748ZM86.5283 2.5563C86.5283 2.09748 86.3958 1.57311 86.197 1.11429H85.8657C85.4019 2.42521 84.7394 3.08067 83.083 3.08067C81.6254 3.08067 80.6316 2.29412 79.9691 1.63866L75.265 6.9479L75.5963 7.27563L77.2527 5.83361C78.2465 6.62017 79.0415 7.27563 81.2942 7.47227V20.8437L71.6873 4.52269C70.8922 3.21176 69.6997 1.44202 67.447 1.44202C64.8631 1.44202 62.5442 3.67059 62.8754 7.27563H63.3392C63.4717 6.29244 64.0018 5.17815 65.1281 5.17815C65.9231 5.17815 66.7845 5.96471 67.2482 6.81681V12.1261C64.333 12.1261 62.3454 13.437 62.3454 15.8622C62.3454 17.1731 63.008 19.0739 64.9293 19.5983V19.2706C64.5981 18.9429 64.4656 18.6151 64.4656 18.1563C64.4656 17.3697 65.1281 16.7143 66.2544 16.7143H67.0495V23.4655C63.6042 23.4655 60.8878 25.4319 60.8878 28.6437C60.8878 31.7244 63.4717 33.1664 66.4532 32.9697V32.642C64.6643 32.5109 63.8693 31.6588 63.8693 30.5445C63.8693 29.1025 64.8631 28.4471 66.1219 28.4471C67.447 28.4471 68.5733 29.2336 69.3684 30.2168L74.0724 25.0387L73.7412 24.7109L72.6148 26.0219C70.826 24.3832 69.8322 23.9244 67.712 23.5966V7.40672L80.8304 29.9546H81.8242V7.40672C84.2094 7.27563 86.5283 5.30924 86.5283 2.5563ZM98.3878 23.7277L94.3463 26.8084L90.3048 23.5966V21.6303L97.9903 16.4521V16.321L94.0813 10.4874L85.6007 15.0101V25.6286L83.9443 26.9395L84.2756 27.2672L85.7332 26.1529L91.2986 30.1513L98.6528 24.3176C98.5866 24.3176 98.3878 23.7277 98.3878 23.7277ZM90.2385 20.9748V13.0437L90.5698 12.9126L94.1475 18.5496C94.2138 18.5496 90.2385 20.9748 90.2385 20.9748ZM124.956 12.2571L123.83 13.0437L120.716 10.4874L117.138 13.6992L118.595 15.1412V27.2017L114.686 24.7765V14.8134L116.011 14.0269L112.235 10.4874L108.657 13.6992L110.115 15.1412V26.7429L109.651 27.0706L106.206 24.6454V15.0101C106.206 12.7815 105.08 12.1261 103.754 11.274C102.628 10.4874 101.966 9.96303 101.966 8.84874C101.966 7.86555 102.959 7.40672 103.423 7.07899V6.75126C102.098 6.75126 98.7191 8.06219 98.7191 11.0773C98.7191 12.716 99.5141 13.3059 100.375 14.158C101.171 14.9445 102.032 15.6 102.032 17.042V26.4151L100.243 27.7261L100.574 28.0538L102.231 26.7429L106.007 29.9546L110.049 27.2017L114.62 29.9546L123.233 24.9731V14.158L125.353 12.5193L124.956 12.2571ZM155.3 3.4084L153.644 4.85042L150.066 1.63866L144.7 5.50588V1.96639H144.236L144.368 28.0538C143.905 28.0538 142.381 27.7261 141.254 27.3983L140.923 5.63698C140.923 3.99832 139.797 1.76975 136.882 1.76975C133.966 1.76975 131.979 3.99832 131.979 6.29244H132.443C132.575 5.30924 133.105 4.52269 134.099 4.52269C135.093 4.52269 135.888 5.17815 135.888 7.27563V13.5681C132.973 13.6992 131.184 15.3378 131.184 17.4353C131.184 18.7462 131.846 20.6471 133.768 20.6471V20.3193C133.105 19.9916 132.973 19.5328 132.973 19.205C132.973 18.2218 133.768 17.8941 135.093 17.8941H135.755V27.8571C133.304 28.6437 132.31 30.4134 132.31 32.3798C132.31 35.1328 134.43 37.0336 137.677 37.0336C139.929 37.0336 141.917 36.7059 143.838 36.2471C145.495 35.9193 147.615 35.4605 148.542 35.4605C149.867 35.4605 150.331 36.116 150.331 36.9025C150.331 38.0168 149.867 38.5412 149.205 38.6723V39C151.789 38.5412 153.445 36.9025 153.445 34.4773C153.445 32.0521 150.994 30.6101 148.41 30.6101C147.085 30.6101 144.368 31.0689 142.381 31.3966C140.128 31.8555 137.809 32.1832 137.147 32.1832C136.02 32.1832 134.695 31.7244 134.695 30.0857C134.695 28.7748 135.822 27.6605 138.604 27.6605C140.062 27.6605 141.851 27.7916 143.64 28.316C145.627 28.7748 147.416 29.2992 149.006 29.2992C151.458 29.2992 153.578 28.5126 153.578 25.1042V5.30924L155.565 3.67059L155.3 3.4084ZM148.609 13.2403C148.145 13.6992 147.482 14.2235 146.621 14.2235C145.76 14.2235 144.965 13.7647 144.633 13.2403V6.0958L146.29 4.98151L148.542 7.07899C148.609 7.07899 148.609 13.2403 148.609 13.2403ZM148.609 18.0252C148.277 17.6975 147.482 17.2387 146.621 17.2387C145.76 17.2387 144.965 17.6975 144.633 18.0252V13.8303C144.965 14.158 145.76 14.6168 146.621 14.6168C147.482 14.6168 148.277 14.158 148.609 13.8303V18.0252ZM148.609 25.6286C148.609 26.9395 147.814 28.1849 146.025 28.1849H144.7V18.6807C145.031 18.3529 145.826 17.8941 146.687 17.8941C147.549 17.8941 148.145 18.3529 148.675 18.6807C148.609 18.6807 148.609 25.6286 148.609 25.6286ZM170.936 14.158L165.702 10.4218L157.686 14.9445V25.4319L156.029 26.7429L156.162 27.0706L157.487 26.0874L162.721 29.9546L170.87 25.1042C170.936 25.1697 170.936 14.158 170.936 14.158ZM162.125 24.3176V12.716L166.166 15.6V27.0706C166.232 27.0706 162.125 24.3176 162.125 24.3176ZM186.44 10.8151H186.109C185.645 11.1429 185.115 11.4706 184.651 11.4706C183.989 11.4706 183.193 11.1429 182.862 10.684H182.531L179.748 13.7647L176.966 10.684L172.063 13.8958L172.195 14.2235L173.52 13.437L175.177 15.2067V25.3664L173.057 27.005L173.388 27.3328L174.382 26.5462L178.291 29.758L183.326 26.3496L183.193 26.0219L181.736 26.8084L179.748 25.1698V13.8958C180.543 14.6824 181.537 15.5345 182.663 15.5345C184.916 15.6655 186.241 13.3714 186.44 10.8151ZM205.985 26.284L200.42 30.0202L192.933 18.7462L198.299 10.5529H198.631C199.293 11.2084 200.287 11.8639 201.413 11.8639C202.54 11.8639 203.401 11.2084 203.865 10.5529H204.196C204.064 13.7647 201.745 15.7311 200.155 15.7311C198.498 15.7311 197.703 14.9445 196.709 14.4202L196.246 15.2067L204.395 27.1361L206.051 26.1529V26.284H205.985ZM188.03 25.4975L185.91 27.1361L186.241 27.4639L187.235 26.6773L190.813 29.8891L195.716 26.6773L195.384 26.3496L194.059 27.1361L192.403 25.4975V0.655462H192.27L186.374 4.52269V4.85042C187.036 5.17815 188.03 5.30924 188.03 7.27563V25.4975ZM233.017 3.99832C233.017 0.786555 229.903 0 227.451 0V0.458824C228.909 0.458824 230.035 0.917647 230.035 2.09748C230.035 2.75294 229.572 3.73613 228.048 3.73613C226.921 3.73613 224.47 3.08067 222.681 2.42521C220.561 1.76975 218.64 1.11429 216.983 1.11429C213.737 1.11429 211.418 3.5395 211.418 6.29244C211.418 8.71765 213.207 9.5042 213.869 9.83193L214.002 9.5042C213.538 9.17647 213.008 8.84874 213.008 7.86555C213.008 7.21008 213.671 6.0958 215.261 6.0958C216.718 6.0958 218.706 6.75126 221.29 7.53782C223.542 8.19328 225.994 8.6521 227.319 8.84874V13.8303L224.867 15.9277V16.0588L227.319 18.1563V25.1042C225.994 25.8908 224.536 26.0874 223.277 26.0874C220.826 26.0874 218.706 25.4319 216.917 23.5311L223.609 20.3193V9.04538L215.459 12.5849C216.254 10.4874 218.043 9.04538 219.7 7.93109L219.567 7.60336C214.664 8.91429 210.292 13.2403 210.292 18.7462C210.292 25.1697 215.658 30.0202 221.687 30.0202C228.18 30.0202 232.42 24.842 232.42 19.5328H232.089C231.095 21.6303 229.638 23.5311 227.849 24.5143V17.8941L230.433 15.7966V15.6655L227.981 13.5681V8.71765C230.565 8.71765 233.017 7.07899 233.017 3.99832ZM218.838 21.7613L216.851 22.7445C215.724 21.3025 215.062 19.3361 215.062 16.6487C215.062 15.5345 215.194 14.2235 215.526 13.2403L218.971 11.7983L218.838 21.7613ZM238.715 2.42521H238.516L235.269 5.17815V5.30924L238.052 8.38992H238.383L241.63 5.63698V5.50588L238.715 2.42521ZM243.618 26.284L242.292 27.0706L240.636 25.4319V14.2891L242.292 13.1748L241.961 12.8471L240.835 13.8303L237.92 10.4218L233.216 13.6336L233.547 14.0924L234.673 13.3059L236.131 15.0756V25.563L234.011 27.2017L234.143 27.5294L235.269 26.7429L238.847 29.9546L243.75 26.7429L243.618 26.284ZM270.782 26.0874L269.655 26.874L267.867 25.2353V14.3546L269.523 13.0437L269.192 12.716L267.867 13.8303L264.09 10.4218L259.187 13.8303L255.411 10.4218L250.839 13.8303L247.924 10.4218L243.22 13.6336L243.352 14.0924L244.479 13.3059L246.135 15.0756V25.563L244.81 26.874L248.587 29.9546L252.164 26.7429L250.707 25.3008V14.3546L252.164 13.3714L254.616 15.6V25.3008L253.291 26.6118L257.067 29.6924L260.645 26.4807L259.187 25.0387V14.3546L260.512 13.5681L263.096 15.7966V25.4975L261.97 26.6118L265.746 30.0202L270.782 26.6118V26.0874ZM284.96 23.7277L280.919 26.8084L276.877 23.5966V21.6303L284.563 16.4521V16.321L280.654 10.4874L272.173 15.0101V25.9563L277.871 29.9546L285.225 24.121C285.159 24.1866 284.96 23.7277 284.96 23.7277ZM276.811 20.9748V13.0437L277.142 12.9126L280.72 18.5496L276.811 20.9748ZM299.801 19.5328L296.687 17.1076C298.807 15.3378 299.602 12.9126 299.602 11.274V10.2908H299.271C298.94 11.0773 298.277 11.9294 297.019 11.9294C295.693 11.9294 294.898 11.2739 294.103 10.2908L286.749 14.2891V20.1227L289.532 22.2202C286.749 24.6454 286.285 26.2185 286.285 27.5294C286.285 29.1681 287.08 30.2824 288.405 30.7412L288.538 30.4134C288.207 30.0857 287.875 29.9546 287.875 29.1025C287.875 28.6437 288.538 27.7916 289.863 27.7916C291.519 27.7916 292.447 28.9059 292.977 29.4303L300 25.2353V19.4017C300 19.5328 299.801 19.5328 299.801 19.5328ZM298.012 14.6824C296.886 16.6487 294.435 18.5496 292.977 19.5328L291.188 18.0908V12.4538C291.851 14.0924 293.64 15.3378 295.428 15.3378C296.555 15.3378 297.217 15.1412 298.012 14.6824ZM295.23 27.595C294.435 25.8252 292.447 24.5143 290.526 24.5143C290.062 24.5143 288.737 24.5143 287.412 25.3008C288.207 23.9899 290.327 21.7613 293.11 20.1227L295.097 21.7613L295.23 27.595Z" fill="#323536"/>
</svg>
