<svg width="101" height="27" viewBox="0 0 101 27" fill="none" xmlns="http://www.w3.org/2000/svg">
<path d="M0 0.0596026H25.9432V5.42384H25.4719L25.5268 1.98676H15.2788V26.1854H18.2381V26.9801H8.11069V26.1854H10.8508V1.98676H0.493218V5.42384H0V0.0596026ZM27.1818 0.0596026H37.3749V0.804636H34.4704V26.1954H37.364V26.9901H27.1708V26.1954H30.1301V0.794702H27.1708V0.0596026H27.1818ZM46.3624 0H48.3134L57.8489 20.7616L67.3187 0H69.2149L74.5307 26.1854H77.205V26.9801H66.683V26.1854H69.3902L66.1021 9.44702L57.6845 27H55.7117L47.3818 9.45695L43.8744 26.2053H46.4282L46.3734 27H38.6244L38.6792 26.2053H41.0467L46.3624 0ZM78.0928 0.0596026H100.529L100.584 5.37417H100.178L99.9916 2.09603L85.3047 1.94702V12.5762H97.7996L98.0955 10.0927H98.6435C98.512 12.3576 98.512 14.5629 98.6435 16.8079H98.0955L97.7996 14.245H85.3047V25.2318H100.54L100.584 21.5762H101V26.9901H78.0928V26.2351L81.0521 26.1954V0.854305L78.0928 0.804636V0.0695364V0.0596026Z" fill="#323536"/>
</svg>
