<svg width="115" height="29" viewBox="0 0 115 29" fill="none" xmlns="http://www.w3.org/2000/svg">
<path d="M65.1918 9.45272C65.1918 6.06841 65.2499 2.9175 65.424 0L56.5422 1.69215V2.50905L57.4129 2.62575C58.0515 2.6841 58.4578 2.9175 58.6901 3.26761C58.9223 3.67606 59.0964 4.25956 59.2125 5.13481C59.3286 6.82696 59.4447 10.6781 59.3867 16.7465C59.3867 22.7565 59.3286 26.5493 59.2125 28.008C62.4053 28.7082 64.9016 29 66.7592 29C70.2423 29 72.9707 28.008 74.9445 25.9658C76.9182 23.9819 77.9632 21.1811 77.9632 17.7384C77.9632 14.996 77.2085 12.7203 75.6991 10.9115C74.1898 9.10262 72.2741 8.22736 70.0101 8.22736C68.5008 8.22736 66.9334 8.63581 65.1918 9.45272ZM65.366 27.4245C65.2499 25.5573 65.1338 19.9557 65.1338 10.7948C65.6562 10.6197 66.3529 10.503 67.2236 10.503C68.6169 10.503 69.7198 11.2032 70.5326 12.662C71.3453 14.1207 71.7516 15.8712 71.7516 18.0885C71.7516 20.831 71.2872 23.0483 70.3584 24.9155C69.4296 26.7243 68.2685 27.6579 66.8173 27.6579C66.3529 27.5412 65.8884 27.4829 65.366 27.4245ZM23.2206 0.583501H0V1.7505L1.21908 1.8672C2.1479 2.04225 2.78647 2.39235 3.19283 2.9175C3.59919 3.50101 3.8314 4.43461 3.88945 5.71831C4.35386 12.0201 4.35386 17.9135 3.88945 23.34C3.77335 24.6237 3.54114 25.5573 3.19283 26.1408C2.78647 26.7243 2.1479 27.0744 1.21908 27.1911L0 27.3662V28.5332H14.9773V27.3662L13.4099 27.2495C12.4811 27.1328 11.8425 26.7243 11.4361 26.1992C11.0298 25.6157 10.7976 24.6821 10.7395 23.3984C10.5654 21.0644 10.4493 18.3803 10.4493 15.4044L13.584 15.4628C15.2675 15.5211 16.4286 16.8048 17.0091 19.3722H18.1701V9.86117H17.0091C16.4286 12.3702 15.3256 13.6539 13.584 13.7123L10.4493 13.7706C10.4493 8.51911 10.5654 4.78471 10.7395 2.50905H15.3256C18.5765 2.50905 20.7824 4.60966 22.0596 8.81086L23.4528 8.40241L23.2206 0.583501ZM20.4922 18.5553C20.4922 21.5895 21.3629 24.0986 23.0464 26.0825C24.7299 28.0664 27.2261 29 30.3609 29C33.4957 29 36.05 28.008 37.9076 25.9658C39.7653 23.9819 40.636 21.4728 40.636 18.4386C40.636 15.4044 39.7653 12.8954 38.0818 10.9115C36.3983 8.92757 33.9021 7.99396 30.7673 7.99396C27.6325 7.99396 25.0782 8.98592 23.2206 11.0282C21.3629 13.0121 20.4922 15.5211 20.4922 18.5553ZM33.4377 11.9034C34.1343 13.5956 34.4245 15.8129 34.4245 18.497C34.4245 24.6821 33.1474 27.7163 30.6512 27.7163C29.3741 27.7163 28.3872 26.841 27.6906 25.0905C26.9939 23.34 26.7037 21.1227 26.7037 18.497C26.7037 12.3702 27.9808 9.33602 30.477 9.33602C31.7542 9.27767 32.741 10.1529 33.4377 11.9034ZM82.4912 26.0825C84.4069 28.008 86.845 29 89.7476 29C91.5472 29 93.1146 28.6499 94.5078 27.8913C95.9011 27.1911 97.004 26.3159 97.7587 25.2656L97.1782 24.5654C95.9011 25.5573 94.4498 26.0241 92.7663 26.0241C90.4442 26.0241 88.6446 25.2656 87.4255 23.6901C86.1484 22.1147 85.5679 20.1308 85.684 17.5634H98.107C98.107 14.7626 97.4104 12.4869 95.9591 10.6781C94.5078 8.92756 92.476 8.05231 89.8637 8.05231C86.6128 8.05231 84.1166 9.10262 82.317 11.1449C80.5174 13.1871 79.6466 15.6962 79.6466 18.672C79.6466 21.7062 80.5755 24.1569 82.4912 26.0825ZM86.787 11.4366C87.4255 10.0362 88.2383 9.33602 89.3412 9.33602C91.0828 9.33602 91.9536 11.5533 91.9536 16.0463L85.8001 16.163C85.8582 14.4125 86.1484 12.837 86.787 11.4366ZM113.723 9.10262C112.155 8.40241 110.182 7.99396 107.802 7.99396C105.363 7.99396 103.448 8.63581 101.996 9.86117C100.545 11.0865 99.7905 12.6036 99.7905 14.4125C99.7905 15.9879 100.255 17.2133 101.126 18.0885C101.996 18.9638 103.39 19.7223 105.189 20.3642C106.815 20.9477 107.976 21.5312 108.556 22.0563C109.137 22.6398 109.485 23.2817 109.485 24.1569C109.485 24.9738 109.195 25.7324 108.556 26.3159C107.976 26.9577 107.163 27.2495 106.118 27.2495C103.564 27.2495 101.648 25.3823 100.313 21.6479L99.3261 21.9396L99.5583 27.7746C101.648 28.5915 103.97 29 106.524 29C109.195 29 111.227 28.4165 112.736 27.1911C114.245 26.0241 115 24.332 115 22.2314C115 20.831 114.652 19.664 113.897 18.7887C113.142 17.9135 111.923 17.1549 110.182 16.4547C108.266 15.7545 106.931 15.1127 106.234 14.5292C105.538 13.9457 105.189 13.2455 105.189 12.3702C105.189 11.495 105.421 10.7948 105.944 10.2113C106.466 9.62777 107.105 9.39437 107.918 9.39437C110.24 9.39437 111.923 11.0865 112.968 14.4125L113.955 14.1207L113.723 9.10262ZM57.8773 8.57746C57.0646 8.16901 56.1938 7.99396 55.207 7.99396C54.2201 7.99396 53.2332 8.40241 52.1302 9.21932C51.0273 10.0362 50.2145 11.1449 49.576 12.662L49.634 7.99396L40.8102 9.74447V10.5614L41.681 10.6197C42.7839 10.7364 43.4225 11.6117 43.5386 13.1871C43.8869 16.8048 43.8869 20.6559 43.5386 24.7404C43.4225 26.3159 42.7839 27.1328 41.681 27.3078L40.8102 27.4245V28.5332H53.1171V27.4245L51.5497 27.3078C50.4467 27.1911 49.8082 26.3159 49.6921 24.7404C49.3438 21.3561 49.2857 17.7384 49.576 14.004C49.9243 13.4205 50.6789 13.0704 51.84 12.9537C53.001 12.837 54.3362 13.1871 55.7294 14.004L57.8773 8.57746Z" fill="#323536"/>
</svg>
