<svg width="92" height="29" viewBox="0 0 92 29" fill="none" xmlns="http://www.w3.org/2000/svg">
<path fill-rule="evenodd" clip-rule="evenodd" d="M60.1816 7.1785C60.9388 8.0441 62.6066 8.00353 63.5967 8.63997C62.2589 8.98374 60.5787 8.98374 59.368 9.45268C59.6522 8.70875 59.9098 7.93656 60.1816 7.1785Z" fill="#323536"/>
<path fill-rule="evenodd" clip-rule="evenodd" d="M50.7477 10.1842C50.3506 12.007 49.5105 14.0926 49.0393 16.1148C51.6249 16.1501 54.3482 15.6265 57.0062 15.4643C57.3662 14.9865 57.5427 14.3219 57.7369 13.6767C58.2699 14.4312 58.6458 15.8381 58.1445 16.9275C54.11 16.8729 51.2083 20.1713 47.2518 20.1766C45.4798 20.1766 43.9708 19.1611 44.8109 17.1708C45.9952 14.3624 48.9355 12.4041 50.7482 10.1845" fill="#323536"/>
<mask id="mask0_4_44" style="mask-type:luminance" maskUnits="userSpaceOnUse" x="0" y="0" width="92" height="29">
<path d="M0 0H91.7183V28.8169H0V0Z" fill="white"/>
</mask>
<g mask="url(#mask0_4_44)">
<path fill-rule="evenodd" clip-rule="evenodd" d="M63.1093 3.93305C62.0787 4.05998 61.3427 5.18295 60.6685 5.55848C60.7179 5.55319 60.7638 5.54438 60.7497 5.47739C60.8715 4.92205 61.1115 4.47959 61.1556 3.85196C55.7429 1.94798 50.4797 4.73164 46.6041 6.85775C43.5049 8.55544 40.7395 10.5546 38.7963 12.5451C39.4969 11.3481 40.2417 10.1705 41.073 9.05102C41.9149 7.91923 42.8538 6.89499 43.595 5.88307C41.9731 5.4582 40.3511 5.01218 38.715 4.6649C36.3924 4.17306 33.1626 3.3515 31.237 4.42161C30.681 4.72836 30.2257 5.48995 29.6927 5.55868C29.2532 5.61686 28.5261 5.29248 27.9843 5.23254C25.997 5.01218 24.1704 5.19728 22.3737 5.55868C20.6917 5.89716 17.1353 6.49303 16.6799 8.07612C16.3869 9.09156 17.0364 10.0806 16.9235 11.0819C16.8105 12.0709 15.861 13.379 15.3792 14.1688C14.7862 15.1348 14.1861 15.9916 13.1819 16.443C12.573 13.4196 13.2366 10.7258 13.7519 8.16237C14.0731 6.58279 14.7138 4.96269 14.1596 3.36903C12.6083 3.15219 11.304 4.38095 9.76676 4.99446C6.88468 6.14565 3.67269 7.19634 3.26154 10.5176C3.03034 12.3862 3.73454 13.578 4.23755 14.9055C5.31237 17.7561 6.64133 20.1713 8.22268 22.3787C7.79205 23.1685 6.77548 23.3747 6.67662 24.4871C7.13725 25.1359 8.0903 25.2223 9.03455 25.217C11.7649 25.2117 14.0009 23.8401 16.0255 22.6996C20.4395 20.2209 23.4027 16.4025 26.5161 12.792C27.0632 12.1556 27.5151 11.394 28.2245 11.0062C28.9252 14.2147 27.5645 15.9281 26.5973 18.5552C26.2267 19.5671 25.0477 22.7404 25.6213 24.239C26.2496 25.889 31.6042 25.9613 33.0233 24.893C33.7363 24.3518 34.0205 23.1336 34.4053 22.3738C34.8924 21.3989 35.3177 20.5545 35.706 19.6942C35.7289 23.25 38.371 24.2971 41.2371 25.0553C47.3172 26.6613 53.4483 23.7912 56.7646 21.8062C56.3498 24.4417 57.3753 24.708 59.449 25.1363C64.8125 26.2417 70.2112 24.9653 74.5708 23.9182C78.57 22.9556 81.7876 22.2752 82.3786 18.312C81.7361 17.762 80.1371 17.8308 79.0447 17.9877C75.8184 18.4566 72.6962 20.0873 68.3936 19.7752C67.6082 19.7153 65.9139 19.4456 65.7921 18.9625C65.6033 18.2133 66.9499 17.6897 68.0742 17.5011C71.3004 16.9546 75.9615 17.5046 78.5594 16.5244C79.8072 16.0554 81.3127 14.698 81.1626 13.1942C81.0638 12.1788 79.7401 11.6517 78.48 11.5706C74.9237 11.3484 72.3805 13.4199 68.644 12.7076C69.1081 12.1153 69.1947 11.1457 69.7823 10.6768C72.5109 10.6186 75.1671 11.1598 77.7528 11.0011C81.3444 10.7755 83.3725 9.26464 85.0717 7.26377C85.2517 7.04693 85.7089 6.81775 85.5588 6.45281C79.3111 5.49907 70.8026 2.99043 63.1091 3.93362L63.1093 3.93305ZM91.4006 4.25743C91.5012 4.65056 91.0617 5.02605 90.8358 5.3152C88.9209 7.71453 86.8013 10.558 84.2493 12.3773C84.4328 13.3345 84.334 14.6021 84.0057 15.302C84.6729 16.1552 85.3823 16.9626 85.7935 18.0645C85.2517 20.9433 83.9916 23.1805 81.9761 24.6436C80.0064 26.0698 77.3504 26.6304 74.3323 27.325C68.4976 28.6701 58.9019 29.9923 54.5745 26.5123C49.8887 29.2554 40.4182 29.6221 36.0361 26.3501C32.9175 30.2885 20.6337 29.9412 22.4586 22.1261C20.1819 23.8485 16.8109 26.2232 13.5954 27.5685C9.86792 29.1216 2.80472 28.9488 3.50909 23.6689C3.59557 23.0413 3.86207 22.6852 4.16034 22.1263C3.07138 20.2259 2.37956 18.9037 1.72127 17.2517C1.08769 15.6669 0.12582 13.8617 0.0128211 11.651C-0.22191 6.94389 3.45085 3.95578 7.08823 2.55628C8.94491 1.83879 10.4539 0.805705 12.2931 0.282098C15.0411 -0.498889 17.3991 1.00843 17.5753 3.53115C20.7697 2.58444 24.6597 1.54079 28.8797 2.15078C32.2365 -0.458317 38.7965 1.15299 43.1064 2.39406C44.0824 2.67437 45.3937 3.4007 46.1156 3.36898C46.7262 3.34253 47.8328 2.51574 48.4752 2.23191C51.502 0.892067 55.4553 -0.534109 59.7796 0.201025C60.5968 0.340294 61.3469 0.77396 62.2187 0.851539C62.8117 0.904428 63.5336 0.71932 64.1707 0.689349C74.2678 0.192188 82.681 2.90003 91.4015 4.25747" fill="#323536"/>
</g>
</svg>
