<svg width="58" height="29" viewBox="0 0 58 29" fill="none" xmlns="http://www.w3.org/2000/svg">
<path d="M18.1026 4.16667H13.6154C11.0652 4.16667 8.61952 5.26413 6.81628 7.21764C5.01305 9.17114 4 11.8207 4 14.5833C4 17.346 5.01305 19.9955 6.81628 21.949C8.61952 23.9025 11.0652 25 13.6154 25H21.8397C22.0224 25 22.2033 24.961 22.3721 24.8853C22.5408 24.8096 22.6942 24.6986 22.8233 24.5586C22.9525 24.4187 23.055 24.2526 23.1249 24.0697C23.1948 23.8869 23.2308 23.691 23.2308 23.4931V5.67361C23.2313 5.34202 23.3328 5.01987 23.5195 4.75709C23.7061 4.49432 23.9676 4.30558 24.2634 4.22014C24.5591 4.13471 24.8726 4.15733 25.1553 4.28451C25.438 4.41169 25.6741 4.63633 25.8269 4.92361L36.0192 24.2431C36.1721 24.5303 36.4082 24.755 36.6908 24.8822C36.9735 25.0093 37.287 25.032 37.5828 24.9465C37.8785 24.8611 38.14 24.6723 38.3267 24.4096C38.5134 24.1468 38.6149 23.8246 38.6154 23.4931V5.67361C38.6159 5.34202 38.7174 5.01987 38.9041 4.75709C39.0908 4.49432 39.3522 4.30558 39.648 4.22014C39.9437 4.13471 40.2573 4.15733 40.5399 4.28451C40.8226 4.41169 41.0587 4.63633 41.2115 4.92361L51.4038 24.2431C51.5567 24.5303 51.7928 24.755 52.0755 24.8822C52.3581 25.0093 52.6716 25.032 52.9674 24.9465C53.2631 24.8611 53.5246 24.6723 53.7113 24.4096C53.898 24.1468 53.9995 23.8246 54 23.4931V0" stroke="#323536" stroke-width="8"/>
</svg>
